<?xml version="1.0" encoding="UTF-8" standalone="no"?>
<!DOCTYPE svg PUBLIC "-//W3C//DTD SVG 1.1//EN" "http://www.w3.org/Graphics/SVG/1.1/DTD/svg11.dtd">
<svg width="100%" height="100%" viewBox="0 0 960 192" version="1.1" xmlns="http://www.w3.org/2000/svg" xmlns:xlink="http://www.w3.org/1999/xlink" xml:space="preserve" xmlns:serif="http://www.serif.com/" style="fill-rule:evenodd;clip-rule:evenodd;stroke-linejoin:round;stroke-miterlimit:1.41421;">
    <rect id="mask" x="0" y="0" width="960" height="192" style="fill:none;"/>
    <g>
        <path d="M32.724,15.682L27.271,18.954C25.234,15.512 22.301,13.791 18.471,13.791C16.144,13.791 14.035,14.518 12.144,15.973C10.254,17.427 9.308,19.294 9.308,21.572C9.308,24.869 11.853,27.487 16.944,29.427L20.871,30.953C25.234,32.651 28.592,34.76 30.943,37.28C33.294,39.802 34.47,43.195 34.47,47.462C34.47,52.407 32.785,56.491 29.416,59.715C26.047,62.939 21.89,64.551 16.944,64.551C12.532,64.551 8.751,63.109 5.599,60.224C2.448,57.34 0.582,53.667 0,49.207L6.909,47.752C6.86,50.71 7.866,53.182 9.926,55.17C11.987,57.158 14.52,58.151 17.526,58.151C20.435,58.151 22.846,57.097 24.762,54.988C26.676,52.879 27.634,50.37 27.634,47.462C27.634,44.795 26.798,42.698 25.125,41.171C23.452,39.644 21.138,38.274 18.18,37.062L14.399,35.462C10.666,33.863 7.745,32.02 5.636,29.935C3.527,27.851 2.472,25.063 2.472,21.572C2.472,17.306 4.073,13.876 7.272,11.283C10.472,8.688 14.253,7.392 18.617,7.392C24.919,7.392 29.622,10.155 32.724,15.682Z" style="fill-rule:nonzero;"/>
        <path d="M103.192,7.392C111.046,7.392 117.797,10.191 123.445,15.791C129.093,21.39 131.917,28.117 131.917,35.972C131.917,44.068 129.13,50.855 123.554,56.334C117.979,61.812 111.192,64.551 103.192,64.551C95.193,64.551 88.405,61.812 82.83,56.334C77.255,50.855 74.467,44.068 74.467,35.972C74.467,28.117 77.291,21.39 82.939,15.791C88.587,10.191 95.338,7.392 103.192,7.392ZM103.192,58.151C109.155,58.151 114.295,56.006 118.609,51.716C122.924,47.425 125.081,42.177 125.081,35.972C125.081,29.815 123.009,24.578 118.863,20.264C114.718,15.948 109.495,13.791 103.192,13.791C96.889,13.791 91.665,15.948 87.521,20.264C83.376,24.578 81.303,29.815 81.303,35.972C81.303,42.177 83.46,47.425 87.775,51.716C92.09,56.006 97.229,58.151 103.192,58.151Z" style="fill-rule:nonzero;"/>
        <path d="M174.242,63.388L174.242,5.937L215.402,49.061L215.402,8.556L222.238,8.556L222.238,65.642L181.078,22.518L181.078,63.388L174.242,63.388Z" style="fill-rule:nonzero;"/>
        <path d="M293.214,7.392C301.068,7.392 307.819,10.191 313.467,15.791C319.116,21.39 321.939,28.117 321.939,35.972C321.939,44.068 319.152,50.855 313.576,56.334C308.001,61.812 301.213,64.551 293.214,64.551C285.214,64.551 278.428,61.812 272.852,56.334C267.277,50.855 264.489,44.068 264.489,35.972C264.489,28.117 267.313,21.39 272.961,15.791C278.609,10.191 285.36,7.392 293.214,7.392ZM293.214,58.151C299.177,58.151 304.316,56.006 308.631,51.716C312.946,47.425 315.103,42.177 315.103,35.972C315.103,29.815 313.031,24.578 308.886,20.264C304.741,15.948 299.517,13.791 293.214,13.791C286.912,13.791 281.688,15.948 277.543,20.264C273.397,24.578 271.325,29.815 271.325,35.972C271.325,42.177 273.482,47.425 277.797,51.716C282.112,56.006 287.251,58.151 293.214,58.151Z" style="fill-rule:nonzero;"/>
        <path d="M394.734,15.682L389.279,18.954C387.243,15.512 384.31,13.791 380.48,13.791C378.153,13.791 376.044,14.518 374.153,15.973C372.263,17.427 371.317,19.294 371.317,21.572C371.317,24.869 373.862,27.487 378.953,29.427L382.88,30.953C387.243,32.651 390.601,34.76 392.952,37.28C395.303,39.802 396.479,43.195 396.479,47.462C396.479,52.407 394.794,56.491 391.425,59.715C388.056,62.939 383.898,64.551 378.953,64.551C374.541,64.551 370.76,63.109 367.609,60.224C364.457,57.34 362.59,53.667 362.009,49.207L368.917,47.752C368.869,50.71 369.875,53.182 371.935,55.17C373.996,57.158 376.529,58.151 379.535,58.151C382.444,58.151 384.856,57.097 386.771,54.988C388.686,52.879 389.643,50.37 389.643,47.462C389.643,44.795 388.807,42.698 387.134,41.171C385.462,39.644 383.147,38.274 380.189,37.062L376.408,35.462C372.675,33.863 369.754,32.02 367.645,29.935C365.536,27.851 364.481,25.063 364.481,21.572C364.481,17.306 366.081,13.876 369.281,11.283C372.481,8.688 376.262,7.392 380.625,7.392C386.928,7.392 391.631,10.155 394.734,15.682Z" style="fill-rule:nonzero;"/>
        <rect x="497.49" y="8.556" width="6.836" height="54.832"/>
        <path d="M579.156,35.753L600.9,35.753L600.9,37.935C600.9,45.546 598.476,51.885 593.628,56.952C588.78,62.018 582.55,64.551 574.939,64.551C567.327,64.551 560.806,61.727 555.376,56.079C549.946,50.431 547.231,43.777 547.231,36.117C547.231,28.214 550.007,21.451 555.558,15.828C561.109,10.204 567.812,7.392 575.665,7.392C579.981,7.392 584.113,8.325 588.065,10.191C592.016,12.058 595.324,14.664 597.991,18.009L593.192,22.591C591.203,19.876 588.658,17.706 585.555,16.082C582.453,14.458 579.253,13.646 575.956,13.646C569.848,13.646 564.672,15.815 560.43,20.155C556.188,24.494 554.067,29.742 554.067,35.899C554.067,41.765 556.164,46.965 560.357,51.497C564.551,56.03 569.556,58.297 575.375,58.297C579.738,58.297 583.786,56.673 587.519,53.424C591.252,50.177 593.192,46.37 593.337,42.007L579.156,42.007L579.156,35.753Z" style="fill-rule:nonzero;"/>
        <path d="M643.37,63.388L643.37,5.937L684.53,49.061L684.53,8.556L691.366,8.556L691.366,65.642L650.205,22.518L650.205,63.388L643.37,63.388Z" style="fill-rule:nonzero;"/>
        <rect x="737.253" y="8.556" width="6.836" height="54.832"/>
        <path d="M805.463,14.809L805.463,63.388L798.628,63.388L798.628,14.809L785.61,14.809L785.61,8.556L818.481,8.556L818.481,14.809L805.463,14.809Z" style="fill-rule:nonzero;"/>
        <rect x="860.006" y="8.556" width="6.836" height="54.832"/>
        <path d="M946.399,49.643L921.239,49.643L914.988,63.388L907.638,63.388L933.819,6.228L960,63.388L952.658,63.388L946.399,49.643ZM943.565,43.389L933.819,21.209L924.073,43.389L943.565,43.389Z" style="fill-rule:nonzero;"/>
    </g>
    <g>
        <path d="M682.068,186.063L277.932,186.063L277.932,108.271L682.068,108.271L682.068,186.063ZM491.969,159.971L501.419,135.007L496.322,135.007L490.904,151.392L490.84,151.392L485.002,135.007L479.906,135.007L489.194,159.971L491.969,159.971ZM635.753,159.971C632.27,159.971 629.394,158.719 627.125,156.214C624.857,153.709 623.723,150.682 623.723,147.134C623.723,143.651 624.862,140.652 627.141,138.136C629.421,135.62 632.291,134.362 635.753,134.362C639.215,134.362 642.086,135.62 644.365,138.136C646.644,140.652 647.783,143.651 647.783,147.134C647.783,150.682 646.649,153.709 644.381,156.214C642.113,158.719 639.236,159.971 635.753,159.971ZM315.608,150.231C318.123,150.231 320.048,149.591 321.381,148.312C322.714,147.032 323.381,145.114 323.381,142.555C323.381,137.523 320.575,135.007 314.963,135.007L308.512,135.007L308.512,159.326L313.253,159.326L313.253,150.231L315.608,150.231ZM526.801,159.326L526.801,135.007L522.06,135.007L522.06,159.326L526.801,159.326ZM349.635,155.197L349.635,135.007L344.893,135.007L344.893,159.326L356.344,159.326L356.344,155.197L349.635,155.197ZM602.371,139.135L602.371,135.007L589.793,135.007L589.793,159.326L602.371,159.326L602.371,155.197L594.533,155.197L594.533,148.618L602.081,148.618L602.081,144.49L594.533,144.49L594.533,139.135L602.371,139.135ZM556.345,159.326C559.786,159.326 562.608,158.17 564.813,155.859C567.016,153.548 568.118,150.661 568.118,147.199C568.118,143.694 567.032,140.786 564.861,138.474C562.689,136.163 559.861,135.007 556.378,135.007L549.605,135.007L549.605,159.326L556.345,159.326ZM425.172,159.326L425.172,148.166L432.848,135.007L427.301,135.007L422.657,143.458L418.399,135.007L412.884,135.007L420.431,148.166L420.431,159.326L425.172,159.326ZM397.563,159.326L388.338,134.362L384.662,134.362L375.18,159.326L380.178,159.326L382.178,154.198L390.629,154.198L392.499,159.326L397.563,159.326ZM635.753,139.039C633.732,139.039 632.039,139.845 630.673,141.458C629.308,143.071 628.625,144.899 628.625,146.941C628.625,148.898 629.335,150.779 630.754,152.585C632.173,154.392 633.84,155.294 635.753,155.294C637.667,155.294 639.333,154.392 640.752,152.585C642.172,150.779 642.881,148.898 642.881,146.941C642.881,144.899 642.199,143.071 640.833,141.458C639.468,139.845 637.774,139.039 635.753,139.039ZM555.12,139.135C560.517,139.136 563.216,141.813 563.216,147.166C563.216,152.521 560.517,155.197 555.12,155.197L554.346,155.197L554.346,139.135L555.12,139.135ZM386.275,141.49L389.306,150.328L383.533,150.328L386.21,141.49L386.275,141.49ZM314.092,138.942C315.597,138.942 316.715,139.179 317.446,139.652C318.177,140.125 318.543,141.082 318.543,142.522C318.543,144.006 318.204,145.006 317.527,145.522C316.849,146.038 315.748,146.296 314.221,146.296L313.253,146.296L313.253,138.942L314.092,138.942Z"/>
    </g>
</svg>
