<?xml version="1.0" encoding="UTF-8" standalone="no"?>
<!DOCTYPE svg PUBLIC "-//W3C//DTD SVG 1.1//EN" "http://www.w3.org/Graphics/SVG/1.1/DTD/svg11.dtd">
<svg width="100%" height="100%" viewBox="0 0 1250 250" version="1.1" xmlns="http://www.w3.org/2000/svg" xmlns:xlink="http://www.w3.org/1999/xlink" xml:space="preserve" xmlns:serif="http://www.serif.com/" style="fill-rule:evenodd;clip-rule:evenodd;stroke-linejoin:round;stroke-miterlimit:1.41421;">
    <rect id="mask-inv" x="0" y="0" width="1250" height="250" style="fill:none;"/>
    <clipPath id="_clip1">
        <rect x="0" y="0" width="1250" height="250"/>
    </clipPath>
    <g clip-path="url(#_clip1)">
        <path d="M1250,0L1250,250L0,250L0,0L1250,0ZM888.109,242.269L888.109,140.978L361.891,140.978L361.891,242.269L888.109,242.269ZM880.641,150.625L880.641,232.623L370.565,232.623L370.565,150.625L880.641,150.625ZM640.584,208.296L652.889,175.791L646.253,175.791L639.198,197.125L639.114,197.125L631.513,175.791L624.877,175.791L636.972,208.296L640.584,208.296ZM827.804,208.296C823.268,208.296 819.523,206.665 816.569,203.403C813.616,200.142 812.139,196.201 812.139,191.581C812.139,187.046 813.623,183.14 816.59,179.864C819.558,176.589 823.296,174.951 827.804,174.951C832.311,174.951 836.049,176.589 839.017,179.864C841.984,183.14 843.468,187.046 843.468,191.581C843.468,196.201 841.991,200.142 839.038,203.403C836.084,206.665 832.339,208.296 827.804,208.296ZM517.66,207.456L505.649,174.951L500.862,174.951L488.515,207.456L495.024,207.456L497.628,200.779L508.631,200.779L511.067,207.456L517.66,207.456ZM685.94,207.456L685.94,175.791L679.766,175.791L679.766,207.456L685.94,207.456ZM455.254,202.08L455.254,175.791L449.08,175.791L449.08,207.456L463.989,207.456L463.989,202.08L455.254,202.08ZM784.337,181.166L784.337,175.791L767.959,175.791L767.959,207.456L784.337,207.456L784.337,202.08L774.132,202.08L774.132,193.513L783.959,193.513L783.959,188.138L774.132,188.138L774.132,181.166L784.337,181.166ZM410.948,195.613C414.224,195.613 416.729,194.78 418.465,193.114C420.201,191.448 421.069,188.95 421.069,185.618C421.069,179.066 417.415,175.791 410.108,175.791L401.708,175.791L401.708,207.456L407.882,207.456L407.882,195.613L410.948,195.613ZM553.609,207.456L553.609,192.925L563.604,175.791L556.381,175.791L550.334,186.794L544.79,175.791L537.609,175.791L547.436,192.925L547.436,207.456L553.609,207.456ZM724.408,207.456C728.889,207.456 732.563,205.951 735.433,202.941C738.302,199.932 739.737,196.173 739.737,191.665C739.737,187.102 738.323,183.315 735.496,180.305C732.668,177.296 728.986,175.791 724.45,175.791L715.631,175.791L715.631,207.456L724.408,207.456ZM827.804,181.04C825.172,181.04 822.967,182.09 821.189,184.19C819.411,186.29 818.522,188.67 818.522,191.329C818.522,193.877 819.446,196.327 821.294,198.679C823.142,201.031 825.312,202.206 827.804,202.206C830.295,202.206 832.465,201.031 834.313,198.679C836.161,196.327 837.085,193.877 837.085,191.329C837.085,188.67 836.196,186.29 834.418,184.19C832.64,182.09 830.435,181.04 827.804,181.04ZM722.813,181.166C729.84,181.167 733.354,184.652 733.354,191.623C733.354,198.595 729.84,202.08 722.813,202.08L721.805,202.08L721.805,181.166L722.813,181.166ZM502.962,184.232L506.909,195.739L499.392,195.739L502.878,184.232L502.962,184.232ZM408.974,180.914C410.934,180.914 412.39,181.222 413.341,181.838C414.293,182.454 414.769,183.7 414.769,185.576C414.769,187.508 414.328,188.81 413.446,189.482C412.564,190.153 411.13,190.489 409.142,190.489L407.882,190.489L407.882,180.914L408.974,180.914ZM846.621,82.536L846.621,29.32L900.216,85.471L900.216,11.14L891.315,11.14L891.315,63.882L837.721,7.731L837.721,82.536L846.621,82.536ZM235.778,82.536L235.778,29.32L289.372,85.471L289.372,11.14L280.471,11.14L280.471,63.882L226.877,7.731L226.877,82.536L235.778,82.536ZM134.365,9.625C144.591,9.625 153.382,13.27 160.736,20.561C168.09,27.852 171.767,36.611 171.767,46.838C171.767,57.38 168.138,66.218 160.878,73.351C153.618,80.484 144.781,84.051 134.365,84.051C123.949,84.051 115.111,80.484 107.852,73.351C100.592,66.218 96.962,57.38 96.962,46.838C96.962,36.611 100.639,27.852 107.994,20.561C115.348,13.27 124.138,9.625 134.365,9.625ZM754.11,46.554L782.422,46.554L782.422,49.394C782.422,59.305 779.265,67.559 772.953,74.156C766.64,80.752 758.528,84.051 748.618,84.051C738.707,84.051 730.216,80.374 723.146,73.019C716.076,65.665 712.541,57.001 712.541,47.027C712.541,36.737 716.155,27.931 723.383,20.609C730.611,13.286 739.338,9.625 749.564,9.625C755.183,9.625 760.564,10.84 765.709,13.27C770.854,15.701 775.162,19.094 778.634,23.449L772.385,29.415C769.796,25.88 766.482,23.055 762.442,20.94C758.402,18.825 754.236,17.768 749.943,17.768C741.989,17.768 735.25,20.593 729.727,26.243C724.203,31.893 721.442,38.726 721.442,46.743C721.442,54.381 724.172,61.152 729.632,67.054C735.093,72.956 741.61,75.907 749.186,75.907C754.867,75.907 760.138,73.793 764.999,69.563C769.86,65.334 772.385,60.378 772.574,54.697L754.11,54.697L754.11,46.554ZM513.976,20.419L506.874,24.68C504.223,20.198 500.404,17.957 495.417,17.957C492.387,17.957 489.641,18.904 487.179,20.798C484.717,22.692 483.486,25.122 483.486,28.089C483.486,32.382 486.8,35.791 493.429,38.316L498.542,40.304C504.223,42.514 508.595,45.26 511.656,48.542C514.718,51.825 516.249,56.244 516.249,61.799C516.249,68.238 514.055,73.556 509.668,77.754C505.281,81.952 499.867,84.051 493.429,84.051C487.684,84.051 482.76,82.173 478.657,78.417C474.554,74.661 472.123,69.879 471.366,64.071L480.361,62.177C480.298,66.028 481.608,69.248 484.291,71.836C486.974,74.424 490.272,75.718 494.186,75.718C497.974,75.718 501.114,74.345 503.608,71.599C506.101,68.853 507.348,65.586 507.348,61.799C507.348,58.327 506.259,55.597 504.081,53.608C501.903,51.62 498.889,49.836 495.038,48.258L490.114,46.175C485.254,44.092 481.45,41.693 478.704,38.978C475.958,36.264 474.585,32.634 474.585,28.089C474.585,22.534 476.668,18.068 480.835,14.691C485.001,11.313 489.925,9.625 495.606,9.625C503.813,9.625 509.936,13.223 513.976,20.419ZM381.789,9.625C392.016,9.625 400.806,13.27 408.16,20.561C415.515,27.852 419.192,36.611 419.192,46.838C419.192,57.38 415.562,66.218 408.302,73.351C401.043,80.484 392.205,84.051 381.789,84.051C371.373,84.051 362.536,80.484 355.276,73.351C348.017,66.218 344.387,57.38 344.387,46.838C344.387,36.611 348.064,27.852 355.418,20.561C362.772,13.27 371.563,9.625 381.789,9.625ZM42.61,20.419L35.509,24.68C32.857,20.198 29.038,17.957 24.051,17.957C21.021,17.957 18.275,18.904 15.813,20.798C13.351,22.692 12.12,25.122 12.12,28.089C12.12,32.382 15.434,35.791 22.063,38.316L27.176,40.304C32.857,42.514 37.229,45.26 40.291,48.542C43.352,51.825 44.883,56.244 44.883,61.799C44.883,68.238 42.689,73.556 38.302,77.754C33.915,81.952 28.502,84.051 22.063,84.051C16.318,84.051 11.394,82.173 7.291,78.417C3.188,74.661 0.758,69.879 0,64.071L8.996,62.177C8.932,66.028 10.242,69.248 12.925,71.836C15.608,74.424 18.906,75.718 22.82,75.718C26.608,75.718 29.748,74.345 32.242,71.599C34.735,68.853 35.982,65.586 35.982,61.799C35.982,58.327 34.893,55.597 32.715,53.608C30.537,51.62 27.523,49.836 23.672,48.258L18.749,46.175C13.888,44.092 10.084,41.693 7.338,38.978C4.592,36.264 3.219,32.634 3.219,28.089C3.219,22.534 5.303,18.068 9.469,14.691C13.635,11.313 18.559,9.625 24.241,9.625C32.447,9.625 38.57,13.223 42.61,20.419ZM968.866,82.536L968.866,11.14L959.965,11.14L959.965,82.536L968.866,82.536ZM656.674,82.536L656.674,11.14L647.773,11.14L647.773,82.536L656.674,82.536ZM1128.7,82.536L1128.7,11.14L1119.8,11.14L1119.8,82.536L1128.7,82.536ZM1065.73,19.283L1065.73,11.14L1022.93,11.14L1022.93,19.283L1039.88,19.283L1039.88,82.536L1048.78,82.536L1048.78,19.283L1065.73,19.283ZM1250,82.536L1215.91,8.11L1181.82,82.536L1191.39,82.536L1199.53,64.639L1232.29,64.639L1240.44,82.536L1250,82.536ZM134.365,75.718C142.129,75.718 148.821,72.925 154.439,67.338C160.057,61.751 162.866,54.918 162.866,46.838C162.866,38.821 160.168,32.003 154.77,26.385C149.373,20.766 142.571,17.957 134.365,17.957C126.158,17.957 119.356,20.766 113.959,26.385C108.562,32.003 105.863,38.821 105.863,46.838C105.863,54.918 108.672,61.751 114.291,67.338C119.909,72.925 126.6,75.718 134.365,75.718ZM381.789,75.718C389.554,75.718 396.245,72.925 401.863,67.338C407.482,61.751 410.291,54.918 410.291,46.838C410.291,38.821 407.592,32.003 402.195,26.385C396.798,20.766 389.996,17.957 381.789,17.957C373.583,17.957 366.781,20.766 361.384,26.385C355.986,32.003 353.288,38.821 353.288,46.838C353.288,54.918 356.097,61.751 361.715,67.338C367.333,72.925 374.025,75.718 381.789,75.718ZM1228.6,56.496L1215.91,27.616L1203.22,56.496L1228.6,56.496Z"/>
    </g>
</svg>
